<?xml version="1.0" standalone="no"?>
<!DOCTYPE svg PUBLIC "-//W3C//DTD SVG 20010904//EN"
 "http://www.w3.org/TR/2001/REC-SVG-20010904/DTD/svg10.dtd">
<svg version="1.0" xmlns="http://www.w3.org/2000/svg"
 width="800.000000pt" height="800.000000pt" viewBox="0 0 800.000000 800.000000"
 preserveAspectRatio="xMidYMid meet">
<metadata>
Created by potrace 1.14, written by Peter Selinger 2001-2017
</metadata>
<g transform="translate(0.000000,800.000000) scale(0.100000,-0.100000)"
fill="#000000" stroke="none">
<path d="M3065 7089 c-158 -18 -289 -44 -465 -93 -134 -37 -453 -179 -520
-230 -8 -7 -32 -21 -52 -31 -21 -11 -38 -23 -38 -27 0 -5 -5 -8 -11 -8 -9 0
-82 -51 -173 -122 -139 -108 -304 -280 -444 -463 -27 -35 -114 -168 -119 -183
-4 -9 -10 -19 -14 -22 -12 -8 -129 -241 -129 -256 0 -8 -5 -14 -12 -14 -6 0
-9 -3 -6 -6 5 -5 -3 -29 -47 -139 -10 -24 -12 -33 -19 -63 -3 -12 -8 -27 -11
-32 -21 -34 -81 -328 -93 -455 -9 -105 -9 -1822 1 -1900 16 -131 38 -251 65
-357 17 -67 28 -100 60 -188 3 -8 6 -19 7 -25 2 -5 4 -17 6 -25 2 -8 9 -20 16
-28 7 -7 15 -28 19 -47 3 -19 10 -35 15 -35 5 0 9 -8 9 -18 0 -10 7 -28 16
-40 8 -12 12 -22 9 -22 -4 0 1 -7 9 -16 9 -8 14 -19 11 -24 -3 -5 -2 -10 2
-12 5 -1 18 -23 31 -48 48 -92 67 -125 84 -144 10 -11 18 -26 18 -33 0 -7 4
-13 8 -13 5 0 15 -12 23 -28 17 -32 28 -48 52 -70 9 -9 17 -21 17 -26 0 -5 10
-17 22 -27 11 -11 18 -19 15 -19 -3 0 4 -11 16 -24 24 -26 139 -153 175 -193
12 -15 22 -22 22 -17 0 4 8 -3 17 -16 10 -14 17 -29 15 -33 -1 -5 2 -5 9 -2
11 8 56 -34 51 -48 -1 -5 1 -6 6 -3 4 2 14 0 22 -5 13 -8 13 -10 0 -20 -12 -8
-11 -9 6 -4 14 3 30 -3 48 -20 15 -14 30 -25 33 -25 15 0 68 -55 65 -69 -2
-14 -2 -14 8 -1 7 10 12 11 18 4 4 -6 14 -14 22 -17 8 -4 35 -20 60 -37 70
-45 164 -98 171 -97 4 1 15 -5 25 -14 11 -9 45 -26 76 -39 49 -20 56 -26 45
-38 -10 -13 -9 -14 9 -2 17 10 28 9 69 -10 69 -32 125 -50 125 -42 0 4 4 2 8
-5 4 -6 22 -13 41 -16 19 -3 37 -9 40 -14 3 -4 15 -9 26 -10 11 -1 40 -7 65
-13 77 -18 94 -21 113 -23 9 -1 17 -4 17 -8 0 -4 8 -6 17 -5 9 2 35 -1 57 -5
44 -8 147 -20 211 -25 22 -1 42 -3 45 -4 18 -5 1614 0 1690 6 131 9 155 12
155 14 0 1 18 3 40 6 36 4 128 21 165 32 8 2 27 4 42 5 14 1 24 6 21 11 -3 5
8 7 25 4 19 -3 29 0 25 5 -4 6 3 8 15 5 12 -4 20 -3 17 2 -4 6 37 19 60 20 3
0 19 7 35 15 16 8 33 16 37 16 5 1 18 5 31 10 13 5 29 9 36 9 8 0 19 6 26 14
6 8 18 12 26 9 8 -3 14 0 14 6 0 6 6 11 14 11 8 0 38 12 68 27 29 15 59 28 65
29 7 1 20 9 29 18 8 9 21 16 28 16 7 0 24 8 37 19 13 10 30 16 38 13 8 -2 11
0 7 6 -3 5 2 13 12 17 9 3 17 5 17 3 0 -2 11 7 24 19 19 17 28 20 38 11 10 -8
12 -7 8 4 -4 9 4 21 19 32 15 9 26 14 26 12 0 -3 15 8 32 25 19 17 39 27 48
24 8 -4 11 -3 7 1 -7 7 14 29 78 79 21 17 56 47 78 68 21 20 44 34 50 30 7 -3
9 -3 5 2 -4 4 -3 14 3 22 10 11 15 11 28 1 14 -11 14 -11 3 3 -10 13 -10 18 1
28 8 6 18 7 22 3 5 -4 5 -2 2 4 -4 6 16 35 44 65 28 30 60 67 72 83 12 15 30
36 40 45 10 9 34 42 54 73 21 32 41 58 45 58 4 0 8 7 8 15 0 8 5 15 10 15 6 0
10 5 10 11 0 6 13 29 29 52 16 23 28 44 27 47 0 3 9 19 20 35 12 17 43 75 69
130 26 55 52 103 57 106 5 3 9 9 8 13 -4 14 25 96 34 96 5 0 7 3 3 6 -3 4 0
22 8 40 17 42 75 240 80 275 2 14 11 64 20 110 16 82 22 134 30 254 6 84 6
1650 0 1705 -2 25 -7 72 -10 105 -6 74 -11 109 -31 205 -9 41 -18 86 -20 100
-3 14 -9 40 -15 58 -6 18 -12 39 -13 45 -8 41 -34 116 -72 213 -161 406 -429
762 -779 1032 -5 4 -28 21 -50 37 -22 17 -41 33 -43 38 -2 4 -8 7 -13 7 -4 0
-39 20 -76 44 -37 23 -80 49 -95 57 -103 54 -242 119 -293 138 -33 13 -67 26
-76 31 -13 7 -67 24 -111 36 -5 1 -9 2 -10 4 -2 1 -10 3 -18 5 -8 2 -50 12
-93 24 -42 12 -93 23 -113 26 -20 2 -44 6 -53 9 -9 3 -38 8 -66 11 -27 4 -63
10 -80 13 -49 9 -1824 10 -1900 1z"/>
<path d="M6200 1280 c-9 -6 -10 -10 -3 -10 6 0 15 5 18 10 8 12 4 12 -15 0z"/>
<path d="M2196 1122 c-3 -5 1 -9 9 -9 8 0 12 4 9 9 -3 4 -7 8 -9 8 -2 0 -6 -4
-9 -8z"/>
<path d="M3359 833 c-13 -16 -12 -17 4 -4 16 13 21 21 13 21 -2 0 -10 -8 -17
-17z"/>
<path d="M3676 833 c-6 -14 -5 -15 5 -6 7 7 10 15 7 18 -3 3 -9 -2 -12 -12z"/>
<path d="M5116 818 c3 -5 10 -6 15 -3 13 9 11 12 -6 12 -8 0 -12 -4 -9 -9z"/>
<path d="M3056 793 c-6 -14 -5 -15 5 -6 7 7 10 15 7 18 -3 3 -9 -2 -12 -12z"/>
</g>
</svg>
